<svg width="20" height="15" viewBox="0 0 20 15" fill="none" xmlns="http://www.w3.org/2000/svg">
<path d="M15.0068 0C13.2333 0 11.3233 0.347665 10.0045 1.30374C8.68577 0.347665 6.77581 0 5.00227 0C3.68349 0 2.28286 0.191216 1.1096 0.686638C0.445657 0.973462 0 1.59057 0 2.29459V12.0987C0 13.2287 1.1096 14.0631 2.25557 13.7849C3.14689 13.5676 4.09277 13.472 5.00227 13.472C6.4211 13.472 7.93088 13.698 9.14961 14.2717C9.69532 14.5324 10.3138 14.5324 10.8504 14.2717C12.0691 13.6893 13.5789 13.472 14.9977 13.472C15.9072 13.472 16.8531 13.5676 17.7444 13.7849C18.8904 14.0717 20 13.2373 20 12.0987V2.29459C20 1.59057 19.5543 0.973462 18.8904 0.686638C17.7262 0.191216 16.3256 0 15.0068 0ZM18.1901 11.0644C18.1901 11.612 17.6626 12.0118 17.0987 11.9162C16.4166 11.7945 15.7071 11.7424 15.0068 11.7424C13.4607 11.7424 11.2324 12.3073 10.0045 13.0461V3.04207C11.2324 2.30328 13.4607 1.73833 15.0068 1.73833C15.8436 1.73833 16.6712 1.81655 17.4625 1.98169C17.8809 2.06861 18.1901 2.42496 18.1901 2.83347V11.0644Z" fill="url(#paint0_linear_5_173)"/>
<path d="M11.8054 5.65767C11.5144 5.65767 11.2506 5.48389 11.1597 5.20584C11.0414 4.86697 11.2415 4.49335 11.5962 4.38908C12.9969 3.95463 14.8068 3.81561 16.4712 3.99808C16.8441 4.04152 17.1169 4.36301 17.0715 4.71926C17.026 5.07551 16.6895 5.33618 16.3166 5.29273C14.8432 5.12764 13.2333 5.25797 12.0146 5.6316C11.9419 5.64029 11.8691 5.65767 11.8054 5.65767Z" fill="url(#paint1_linear_5_173)"/>
<path d="M11.8054 7.96968C11.5144 7.96968 11.2506 7.7959 11.1597 7.51785C11.0414 7.17898 11.2415 6.80536 11.5962 6.70109C12.9878 6.26665 14.8068 6.12762 16.4712 6.31009C16.8441 6.35353 17.1169 6.67503 17.0715 7.03127C17.026 7.38752 16.6895 7.64819 16.3166 7.60474C14.8432 7.43965 13.2333 7.56999 12.0146 7.94361C11.9419 7.96099 11.8691 7.96968 11.8054 7.96968Z" fill="url(#paint2_linear_5_173)"/>
<path d="M11.8054 10.2817C11.5144 10.2817 11.2506 10.1079 11.1597 9.82987C11.0414 9.491 11.2415 9.11737 11.5962 9.0131C12.9878 8.57866 14.8068 8.43963 16.4712 8.6221C16.8441 8.66555 17.1169 8.98704 17.0715 9.34328C17.026 9.69953 16.6895 9.95151 16.3166 9.91675C14.8432 9.75166 13.2333 9.882 12.0146 10.2556C11.9419 10.273 11.8691 10.2817 11.8054 10.2817Z" fill="url(#paint3_linear_5_173)"/>
<defs>
<linearGradient id="paint0_linear_5_173" x1="3.5" y1="-3.85454e-06" x2="17.2972" y2="1.98685" gradientUnits="userSpaceOnUse">
<stop stop-color="#0CA1C2"/>
<stop offset="1" stop-color="#035B9A"/>
</linearGradient>
<linearGradient id="paint1_linear_5_173" x1="12.167" y1="3.9198" x2="15.8844" y2="5.24575" gradientUnits="userSpaceOnUse">
<stop stop-color="#0CA1C2"/>
<stop offset="1" stop-color="#035B9A"/>
</linearGradient>
<linearGradient id="paint2_linear_5_173" x1="12.167" y1="6.23181" x2="15.8844" y2="7.55776" gradientUnits="userSpaceOnUse">
<stop stop-color="#0CA1C2"/>
<stop offset="1" stop-color="#035B9A"/>
</linearGradient>
<linearGradient id="paint3_linear_5_173" x1="12.167" y1="8.54382" x2="15.8844" y2="9.86978" gradientUnits="userSpaceOnUse">
<stop stop-color="#0CA1C2"/>
<stop offset="1" stop-color="#035B9A"/>
</linearGradient>
</defs>
</svg>
