<svg width="106" height="73" viewBox="0 0 106 73" fill="none" xmlns="http://www.w3.org/2000/svg">
<path d="M40.9709 71.3617L65.395 20.5553L93.5714 37.0213L71.557 49.959C71.4385 50.0286 71.3539 50.144 71.3231 50.2779C71.2922 50.4118 71.3179 50.5525 71.394 50.667L76.399 58.192C76.5486 58.4169 76.8497 58.4823 77.0792 58.3398L104.344 41.3998C104.491 41.3085 104.58 41.1479 104.58 40.9751V33.0651C104.58 32.8918 104.491 32.7309 104.343 32.6398L69.8437 11.3012L72.4009 5.98169C72.459 5.86093 72.4661 5.72192 72.4208 5.59584C72.3755 5.46975 72.2814 5.36714 72.1597 5.31103L63.5847 1.35602C63.3369 1.24174 63.0433 1.34722 62.9249 1.59303L38.4614 52.3684L12.3544 37.0215L34.3324 24.1868C34.4496 24.1184 34.534 24.0053 34.5661 23.8734C34.5982 23.7415 34.5754 23.6023 34.5028 23.4876L29.6728 15.8576C29.5261 15.6259 29.22 15.5556 28.9869 15.7001L1.54686 32.7101C1.39978 32.8013 1.3103 32.962 1.3103 33.1351V40.9751C1.3103 41.1479 1.39956 41.3085 1.54634 41.3997L34.0202 61.5862L31.4249 66.973C31.3666 67.0941 31.3594 67.2335 31.405 67.3598C31.4506 67.4862 31.5451 67.5889 31.6673 67.6447L40.3123 71.5997C40.56 71.7131 40.8529 71.6072 40.9709 71.3617Z" fill="url(#paint0_linear_22_5)" stroke="url(#paint1_linear_22_5)" stroke-linejoin="round"/>
<defs>
<linearGradient id="paint0_linear_22_5" x1="19.7076" y1="1.81004" x2="90.0618" y2="12.6198" gradientUnits="userSpaceOnUse">
<stop stop-color="#0CA1C2"/>
<stop offset="1" stop-color="#035B9A"/>
</linearGradient>
<linearGradient id="paint1_linear_22_5" x1="19.7076" y1="1.81004" x2="90.0618" y2="12.6198" gradientUnits="userSpaceOnUse">
<stop stop-color="#0CA1C2"/>
<stop offset="1" stop-color="#035B9A"/>
</linearGradient>
</defs>
</svg>
