<svg width="19" height="15" viewBox="0 0 19 15" fill="none" xmlns="http://www.w3.org/2000/svg">
<path d="M17.1818 10.7256V5.75261L9.86364 9.44018C9.59091 9.58066 9.30303 9.6509 9 9.6509C8.69697 9.6509 8.40909 9.58066 8.13636 9.44018L0.454545 5.56296C0.287879 5.47868 0.170455 5.37332 0.102273 5.24689C0.0340909 5.12045 0 4.97998 0 4.82545C0 4.67092 0.0340909 4.53044 0.102273 4.40401C0.170455 4.27758 0.287879 4.17222 0.454545 4.08793L8.13636 0.210718C8.27273 0.140479 8.41288 0.0877993 8.55682 0.0526796C8.70076 0.0175599 8.84848 0 9 0C9.15152 0 9.29924 0.0175599 9.44318 0.0526796C9.58712 0.0877993 9.72727 0.140479 9.86364 0.210718L18.5227 4.59366C18.6742 4.6639 18.7917 4.76575 18.875 4.8992C18.9583 5.03266 19 5.17665 19 5.33117V10.7256C19 10.9644 18.9129 11.1646 18.7386 11.3261C18.5644 11.4877 18.3485 11.5684 18.0909 11.5684C17.8333 11.5684 17.6174 11.4877 17.4432 11.3261C17.2689 11.1646 17.1818 10.9644 17.1818 10.7256ZM8.13636 14.4974L3.59091 12.2217C3.28788 12.0671 3.05303 11.8564 2.88636 11.5895C2.7197 11.3226 2.63636 11.0346 2.63636 10.7256V7.52264L8.13636 10.2831C8.40909 10.4235 8.69697 10.4938 9 10.4938C9.30303 10.4938 9.59091 10.4235 9.86364 10.2831L15.3636 7.52264V10.7256C15.3636 11.0346 15.2803 11.3226 15.1136 11.5895C14.947 11.8564 14.7121 12.0671 14.4091 12.2217L9.86364 14.4974C9.72727 14.5677 9.58712 14.6203 9.44318 14.6555C9.29924 14.6906 9.15152 14.7081 9 14.7081C8.84848 14.7081 8.70076 14.6906 8.55682 14.6555C8.41288 14.6203 8.27273 14.5677 8.13636 14.4974Z" fill="url(#paint0_linear_5_201)"/>
<defs>
<linearGradient id="paint0_linear_5_201" x1="3.325" y1="-3.91873e-06" x2="16.4662" y2="1.76831" gradientUnits="userSpaceOnUse">
<stop stop-color="#0CA1C2"/>
<stop offset="1" stop-color="#035B9A"/>
</linearGradient>
</defs>
</svg>
