<svg width="22" height="22" viewBox="0 0 22 22" fill="none" xmlns="http://www.w3.org/2000/svg">
<g clip-path="url(#clip0_22_6)">
<path d="M11.5958 14.3642C11.7241 14.0342 11.6416 13.6584 11.385 13.4017L9.46913 11.5134L9.49663 11.4859C11.0916 9.70754 12.2283 7.66337 12.8975 5.50004H14.6758C15.1708 5.50004 15.5833 5.08754 15.5833 4.59254V4.57421C15.5833 4.07921 15.1708 3.66671 14.6758 3.66671H9.16663V2.75004C9.16663 2.24587 8.75413 1.83337 8.24996 1.83337C7.74579 1.83337 7.33329 2.24587 7.33329 2.75004V3.66671H1.82413C1.32913 3.66671 0.916626 4.07921 0.916626 4.57421C0.916626 5.07837 1.32913 5.48171 1.82413 5.48171H11.1558C10.5416 7.26004 9.56996 8.93754 8.24996 10.4042C7.50746 9.58837 6.88413 8.69921 6.36163 7.76421C6.21496 7.49837 5.94913 7.33337 5.64663 7.33337C5.01413 7.33337 4.61079 8.02087 4.92246 8.57087C5.49996 9.60671 6.20579 10.5967 7.03079 11.5134L3.02496 15.4642C2.65829 15.8217 2.65829 16.4084 3.02496 16.7659C3.38246 17.1234 3.95996 17.1234 4.32663 16.7659L8.24996 12.8334L10.1016 14.685C10.5691 15.1525 11.3666 14.9784 11.5958 14.3642ZM16.0416 9.16671C15.4916 9.16671 14.9966 9.50587 14.8041 10.0284L11.44 19.0117C11.22 19.5709 11.6416 20.1667 12.2375 20.1667C12.595 20.1667 12.9158 19.9467 13.0441 19.6075L13.86 17.4167H18.2141L19.0391 19.6075C19.1675 19.9375 19.4883 20.1667 19.8458 20.1667C20.4416 20.1667 20.8633 19.5709 20.6525 19.0117L17.2883 10.0284C17.0866 9.50587 16.5916 9.16671 16.0416 9.16671ZM14.5566 15.5834L16.0416 11.6142L17.5266 15.5834H14.5566Z" fill="url(#paint0_linear_22_6)"/>
</g>
<defs>
<linearGradient id="paint0_linear_22_6" x1="4.38003" y1="1.83337" x2="18.1421" y2="3.38089" gradientUnits="userSpaceOnUse">
<stop stop-color="#0CA1C2"/>
<stop offset="1" stop-color="#035B9A"/>
</linearGradient>
<clipPath id="clip0_22_6">
<rect width="22" height="22" fill="white"/>
</clipPath>
</defs>
</svg>
