<svg width="32" height="32" viewBox="0 0 32 32" fill="none" xmlns="http://www.w3.org/2000/svg">
<mask id="path-1-outside-1_22_10" maskUnits="userSpaceOnUse" x="3" y="7" width="26" height="18" fill="black">
<rect fill="white" x="3" y="7" width="26" height="18"/>
<path d="M19.2435 10.008L27.7955 15.296V16.672L21.7235 20.472L20.9955 19.48L26.6435 15.992L18.5955 11.024L19.2435 10.008ZM11.1475 11.496L11.7955 12.528L6.1475 15.992L13.8835 20.768L13.1635 21.752L4.9955 16.672V15.296L11.1475 11.496ZM13.1635 23.376L12.0755 22.888L19.2755 8.048L20.3475 8.576L13.1635 23.376Z"/>
</mask>
<path d="M19.2435 10.008L27.7955 15.296V16.672L21.7235 20.472L20.9955 19.48L26.6435 15.992L18.5955 11.024L19.2435 10.008ZM11.1475 11.496L11.7955 12.528L6.1475 15.992L13.8835 20.768L13.1635 21.752L4.9955 16.672V15.296L11.1475 11.496ZM13.1635 23.376L12.0755 22.888L19.2755 8.048L20.3475 8.576L13.1635 23.376Z" fill="url(#paint0_linear_22_10)"/>
<path d="M19.2435 10.008L19.7694 9.15746C19.3043 8.86987 18.6944 9.00921 18.4004 9.47027L19.2435 10.008ZM27.7955 15.296H28.7955C28.7955 14.9495 28.6161 14.6277 28.3214 14.4455L27.7955 15.296ZM27.7955 16.672L28.326 17.5197C28.6181 17.3369 28.7955 17.0166 28.7955 16.672H27.7955ZM21.7235 20.472L20.9173 21.0636C21.2271 21.4858 21.8101 21.5975 22.254 21.3197L21.7235 20.472ZM20.9955 19.48L20.4701 18.6292C20.2326 18.7758 20.0672 19.015 20.0139 19.2889C19.9606 19.5629 20.0242 19.8467 20.1893 20.0716L20.9955 19.48ZM26.6435 15.992L27.1689 16.8428C27.464 16.6606 27.6435 16.3386 27.6435 15.9919C27.6435 15.6452 27.4638 15.3232 27.1688 15.1411L26.6435 15.992ZM18.5955 11.024L17.7524 10.4863C17.6084 10.712 17.561 10.9861 17.6207 11.2471C17.6804 11.5081 17.8424 11.7343 18.0702 11.8749L18.5955 11.024ZM11.1475 11.496L11.9944 10.9642C11.7022 10.4989 11.0894 10.3565 10.622 10.6452L11.1475 11.496ZM11.7955 12.528L12.3183 13.3804C12.546 13.2408 12.7083 13.016 12.7692 12.756C12.83 12.4959 12.7844 12.2224 12.6424 11.9962L11.7955 12.528ZM6.1475 15.992L5.62468 15.1396C5.32865 15.3211 5.14801 15.6433 5.1475 15.9905C5.14699 16.3378 5.32668 16.6605 5.62217 16.8429L6.1475 15.992ZM13.8835 20.768L14.6905 21.3585C14.8552 21.1335 14.9184 20.8499 14.8649 20.5762C14.8114 20.3025 14.6461 20.0636 14.4088 19.9171L13.8835 20.768ZM13.1635 21.752L12.6354 22.6012C13.0796 22.8774 13.6616 22.7647 13.9705 22.3425L13.1635 21.752ZM4.9955 16.672H3.9955C3.9955 17.0176 4.17392 17.3387 4.46737 17.5212L4.9955 16.672ZM4.9955 15.296L4.46998 14.4452C4.17504 14.6274 3.9955 14.9493 3.9955 15.296H4.9955ZM13.1635 23.376L12.7543 24.2884C13.2474 24.5096 13.8271 24.2989 14.0631 23.8127L13.1635 23.376ZM12.0755 22.888L11.1758 22.4515C11.0578 22.6948 11.0433 22.9755 11.1357 23.2297C11.2281 23.4839 11.4195 23.6897 11.6663 23.8004L12.0755 22.888ZM19.2755 8.048L19.7173 7.15091C19.4785 7.03327 19.2026 7.01573 18.9508 7.10219C18.699 7.18864 18.492 7.37195 18.3758 7.61149L19.2755 8.048ZM20.3475 8.576L21.2471 9.01268C21.4873 8.51785 21.2828 7.92194 20.7893 7.67891L20.3475 8.576ZM18.7176 10.8585L27.2696 16.1465L28.3214 14.4455L19.7694 9.15746L18.7176 10.8585ZM26.7955 15.296V16.672H28.7955V15.296H26.7955ZM27.265 15.8243L21.193 19.6243L22.254 21.3197L28.326 17.5197L27.265 15.8243ZM22.5297 19.8804L21.8017 18.8884L20.1893 20.0716L20.9173 21.0636L22.5297 19.8804ZM21.5209 20.3308L27.1689 16.8428L26.1181 15.1412L20.4701 18.6292L21.5209 20.3308ZM27.1688 15.1411L19.1208 10.1731L18.0702 11.8749L26.1182 16.8429L27.1688 15.1411ZM19.4386 11.5617L20.0866 10.5457L18.4004 9.47027L17.7524 10.4863L19.4386 11.5617ZM10.3006 12.0278L10.9486 13.0598L12.6424 11.9962L11.9944 10.9642L10.3006 12.0278ZM11.2727 11.6756L5.62468 15.1396L6.67032 16.8444L12.3183 13.3804L11.2727 11.6756ZM5.62217 16.8429L13.3582 21.6189L14.4088 19.9171L6.67282 15.1411L5.62217 16.8429ZM13.0765 20.1775L12.3565 21.1615L13.9705 22.3425L14.6905 21.3585L13.0765 20.1775ZM13.6916 20.9028L5.52363 15.8228L4.46737 17.5212L12.6354 22.6012L13.6916 20.9028ZM5.9955 16.672V15.296H3.9955V16.672H5.9955ZM5.52102 16.1468L11.673 12.3468L10.622 10.6452L4.46998 14.4452L5.52102 16.1468ZM13.5727 22.4636L12.4847 21.9756L11.6663 23.8004L12.7543 24.2884L13.5727 22.4636ZM12.9752 23.3245L20.1752 8.48451L18.3758 7.61149L11.1758 22.4515L12.9752 23.3245ZM18.8337 8.94509L19.9057 9.47309L20.7893 7.67891L19.7173 7.15091L18.8337 8.94509ZM19.4479 8.13932L12.2639 22.9393L14.0631 23.8127L21.2471 9.01268L19.4479 8.13932Z" fill="url(#paint1_linear_22_10)" mask="url(#path-1-outside-1_22_10)"/>
<defs>
<linearGradient id="paint0_linear_22_10" x1="7.075" y1="3.99999" x2="27.1774" y2="6.53024" gradientUnits="userSpaceOnUse">
<stop stop-color="#0CA1C2"/>
<stop offset="1" stop-color="#035B9A"/>
</linearGradient>
<linearGradient id="paint1_linear_22_10" x1="7.075" y1="3.99999" x2="27.1774" y2="6.53024" gradientUnits="userSpaceOnUse">
<stop stop-color="#0CA1C2"/>
<stop offset="1" stop-color="#035B9A"/>
</linearGradient>
</defs>
</svg>
