<svg width="53" height="36" viewBox="0 0 53 36" fill="none" xmlns="http://www.w3.org/2000/svg">
<path d="M20.9891 35.1156L32.7314 10.6895L45.7976 18.3252L35.4831 24.3869C35.3646 24.4565 35.28 24.5719 35.2492 24.7058C35.2184 24.8397 35.244 24.9805 35.3201 25.0949L37.7511 28.7499C37.9007 28.9748 38.2019 29.0402 38.4313 28.8977L51.6743 20.6697C51.8212 20.5785 51.9105 20.4179 51.9105 20.245V16.403C51.9105 16.2298 51.8208 16.0689 51.6735 15.9778L35.1132 5.73493L36.2551 3.35962C36.3131 3.23886 36.3203 3.09985 36.2749 2.97376C36.2296 2.84768 36.1355 2.74507 36.0139 2.68895L31.8489 0.767951C31.6011 0.65367 31.3074 0.759143 31.189 1.00496L19.428 25.4157L7.36651 18.3254L17.6626 12.3128C17.7798 12.2443 17.8641 12.1312 17.8962 11.9993C17.9284 11.8675 17.9055 11.7282 17.8329 11.6136L15.4869 7.90755C15.3402 7.67578 15.0342 7.60549 14.801 7.75001L1.47301 16.012C1.32593 16.1032 1.23645 16.2639 1.23645 16.437V20.245C1.23645 20.4178 1.3257 20.5784 1.47248 20.6696L17.0494 30.3526L15.889 32.761C15.8307 32.882 15.8235 33.0214 15.8691 33.1477C15.9148 33.2741 16.0093 33.3768 16.1314 33.4327L20.3304 35.3537C20.5782 35.467 20.8711 35.3612 20.9891 35.1156Z" fill="url(#paint0_linear_22_3)" stroke="url(#paint1_linear_22_3)" stroke-linejoin="round"/>
<defs>
<linearGradient id="paint0_linear_22_3" x1="10.4294" y1="1.22198" x2="44.6015" y2="6.47242" gradientUnits="userSpaceOnUse">
<stop stop-color="#0CA1C2"/>
<stop offset="1" stop-color="#035B9A"/>
</linearGradient>
<linearGradient id="paint1_linear_22_3" x1="10.4294" y1="1.22198" x2="44.6015" y2="6.47242" gradientUnits="userSpaceOnUse">
<stop stop-color="#0CA1C2"/>
<stop offset="1" stop-color="#035B9A"/>
</linearGradient>
</defs>
</svg>
