<svg width="298" height="29" viewBox="0 0 298 29" fill="none" xmlns="http://www.w3.org/2000/svg">
<path d="M11.4099 3.86C14.4473 3.86 17.0653 4.82333 19.2639 6.75L16.4419 9.70799C15.6033 9.07333 14.8213 8.62 14.0959 8.348C13.3933 8.05333 12.5773 7.906 11.6479 7.906C9.90262 7.906 8.50862 8.59733 7.46595 9.98C6.42328 11.34 5.90195 13.414 5.90195 16.202C5.90195 19.2167 6.29862 21.3587 7.09195 22.628C7.88528 23.8747 9.12061 24.498 10.7979 24.498C11.9766 24.498 13.0419 24.2373 13.9939 23.716V18.378H10.9339L10.3899 14.434H19.3999V26.096C18.1759 26.8893 16.8273 27.5013 15.3539 27.932C13.8806 28.3627 12.4073 28.578 10.9339 28.578C7.35262 28.578 4.65528 27.5353 2.84195 25.45C1.02861 23.342 0.121948 20.2593 0.121948 16.202C0.121948 13.618 0.609282 11.3967 1.58395 9.538C2.58128 7.67933 3.92995 6.274 5.62995 5.32199C7.35262 4.34733 9.27928 3.86 11.4099 3.86Z" fill="#141414"/>
<path d="M37.37 22.764C37.37 23.444 37.4607 23.9427 37.642 24.26C37.846 24.5773 38.1633 24.8153 38.594 24.974L37.472 28.476C36.3613 28.3853 35.4547 28.1473 34.752 27.762C34.0493 27.354 33.5053 26.7193 33.12 25.858C31.9413 27.6713 30.128 28.578 27.68 28.578C25.8893 28.578 24.4613 28.0567 23.396 27.014C22.3307 25.9713 21.798 24.6113 21.798 22.934C21.798 20.962 22.5233 19.4547 23.974 18.412C25.4247 17.3693 27.5213 16.848 30.264 16.848H32.1V16.066C32.1 15.0007 31.8733 14.2753 31.42 13.89C30.9667 13.482 30.1733 13.278 29.04 13.278C28.4507 13.278 27.7367 13.3687 26.898 13.55C26.0593 13.7087 25.198 13.9353 24.314 14.23L23.09 10.694C24.2233 10.2633 25.3793 9.93466 26.558 9.70799C27.7593 9.48133 28.87 9.368 29.89 9.368C32.474 9.368 34.3667 9.90066 35.568 10.966C36.7693 12.0313 37.37 13.6293 37.37 15.76V22.764ZM29.244 24.736C30.468 24.736 31.42 24.158 32.1 23.002V19.806H30.774C29.55 19.806 28.632 20.0213 28.02 20.452C27.4307 20.8827 27.136 21.5513 27.136 22.458C27.136 23.1833 27.3173 23.75 27.68 24.158C28.0653 24.5433 28.5867 24.736 29.244 24.736Z" fill="#141414"/>
<path d="M51.883 9.368C54.0363 9.368 55.691 10.218 56.847 11.918C58.003 13.5953 58.581 15.9527 58.581 18.99C58.581 20.8487 58.2863 22.5033 57.697 23.954C57.1303 25.4047 56.303 26.538 55.215 27.354C54.1496 28.17 52.8803 28.578 51.407 28.578C50.4323 28.578 49.537 28.374 48.721 27.966C47.9276 27.558 47.2476 26.9913 46.681 26.266L46.409 28H41.649V2.772L47.021 2.19399V11.782C47.565 11.034 48.2563 10.4447 49.095 10.014C49.9563 9.58333 50.8856 9.368 51.883 9.368ZM49.843 24.668C51.951 24.668 53.005 22.7753 53.005 18.99C53.005 16.8367 52.7556 15.352 52.257 14.536C51.7583 13.72 51.033 13.312 50.081 13.312C48.8796 13.312 47.8596 14.0147 47.021 15.42V22.934C47.361 23.478 47.769 23.9087 48.245 24.226C48.7436 24.5207 49.2763 24.668 49.843 24.668Z" fill="#141414"/>
<path d="M71.7281 9.436C72.3854 9.436 72.9861 9.51533 73.5301 9.674L72.6801 14.876C72.0001 14.7173 71.4561 14.638 71.0481 14.638C69.9827 14.638 69.1667 15.012 68.6001 15.76C68.0561 16.4853 67.6254 17.5847 67.3081 19.058V28H61.9361V9.946H66.6281L67.0701 13.448C67.4781 12.2013 68.0901 11.2267 68.9061 10.524C69.7447 9.79866 70.6854 9.436 71.7281 9.436Z" fill="#141414"/>
<path d="M80.9546 9.946V28H75.5826V9.946H80.9546ZM78.2346 0.425995C79.1639 0.425995 79.9232 0.720662 80.5126 1.31C81.1246 1.87666 81.4306 2.602 81.4306 3.486C81.4306 4.37 81.1246 5.10666 80.5126 5.696C79.9232 6.26266 79.1639 6.546 78.2346 6.546C77.3052 6.546 76.5459 6.26266 75.9566 5.696C75.3672 5.10666 75.0726 4.37 75.0726 3.486C75.0726 2.602 75.3672 1.87666 75.9566 1.31C76.5459 0.720662 77.3052 0.425995 78.2346 0.425995Z" fill="#141414"/>
<path d="M100.92 18.616C100.92 19.364 100.886 20.01 100.818 20.554H89.6323C89.8136 22.0727 90.2443 23.138 90.9243 23.75C91.6043 24.362 92.5449 24.668 93.7463 24.668C94.4716 24.668 95.1743 24.5433 95.8543 24.294C96.5343 24.022 97.2709 23.614 98.0643 23.07L100.274 26.062C98.1663 27.7393 95.8203 28.578 93.2363 28.578C90.3123 28.578 88.0683 27.7167 86.5043 25.994C84.9403 24.2713 84.1583 21.9593 84.1583 19.058C84.1583 17.222 84.4869 15.5787 85.1443 14.128C85.8016 12.6547 86.7649 11.4987 88.0343 10.66C89.3036 9.79866 90.8223 9.368 92.5903 9.368C95.1969 9.368 97.2369 10.184 98.7103 11.816C100.184 13.448 100.92 15.7147 100.92 18.616ZM95.6503 17.086C95.6049 14.3207 94.6303 12.938 92.7263 12.938C91.7969 12.938 91.0716 13.278 90.5503 13.958C90.0516 14.638 89.7456 15.76 89.6323 17.324H95.6503V17.086Z" fill="#141414"/>
<path d="M108.732 28.578C107.168 28.578 105.944 28.136 105.06 27.252C104.199 26.3453 103.768 25.0647 103.768 23.41V2.772L109.14 2.19399V23.206C109.14 23.954 109.446 24.328 110.058 24.328C110.375 24.328 110.67 24.2713 110.942 24.158L111.996 27.966C111.021 28.374 109.933 28.578 108.732 28.578Z" fill="#141414"/>
<path d="M128.214 22.764C128.214 23.444 128.304 23.9427 128.486 24.26C128.69 24.5773 129.007 24.8153 129.438 24.974L128.316 28.476C127.205 28.3853 126.298 28.1473 125.596 27.762C124.893 27.354 124.349 26.7193 123.964 25.858C122.785 27.6713 120.972 28.578 118.524 28.578C116.733 28.578 115.305 28.0567 114.24 27.014C113.174 25.9713 112.642 24.6113 112.642 22.934C112.642 20.962 113.367 19.4547 114.818 18.412C116.268 17.3693 118.365 16.848 121.108 16.848H122.944V16.066C122.944 15.0007 122.717 14.2753 122.264 13.89C121.81 13.482 121.017 13.278 119.884 13.278C119.294 13.278 118.58 13.3687 117.742 13.55C116.903 13.7087 116.042 13.9353 115.158 14.23L113.934 10.694C115.067 10.2633 116.223 9.93466 117.402 9.70799C118.603 9.48133 119.714 9.368 120.734 9.368C123.318 9.368 125.21 9.90066 126.412 10.966C127.613 12.0313 128.214 13.6293 128.214 15.76V22.764ZM120.088 24.736C121.312 24.736 122.264 24.158 122.944 23.002V19.806H121.618C120.394 19.806 119.476 20.0213 118.864 20.452C118.274 20.8827 117.98 21.5513 117.98 22.458C117.98 23.1833 118.161 23.75 118.524 24.158C118.909 24.5433 119.43 24.736 120.088 24.736Z" fill="#141414"/>
<path d="M156.779 4.438L156.235 8.722H150.421V28H144.845V8.722H138.759V4.438H156.779Z" fill="#141414"/>
<path d="M167.685 9.436C168.342 9.436 168.943 9.51533 169.487 9.674L168.637 14.876C167.957 14.7173 167.413 14.638 167.005 14.638C165.94 14.638 165.124 15.012 164.557 15.76C164.013 16.4853 163.582 17.5847 163.265 19.058V28H157.893V9.946H162.585L163.027 13.448C163.435 12.2013 164.047 11.2267 164.863 10.524C165.702 9.79866 166.642 9.436 167.685 9.436Z" fill="#141414"/>
<path d="M178.33 9.368C181.096 9.368 183.26 10.218 184.824 11.918C186.388 13.5953 187.17 15.9527 187.17 18.99C187.17 20.9167 186.808 22.6053 186.082 24.056C185.38 25.484 184.36 26.5947 183.022 27.388C181.708 28.1813 180.144 28.578 178.33 28.578C175.588 28.578 173.423 27.7393 171.836 26.062C170.272 24.362 169.49 21.9933 169.49 18.956C169.49 17.0293 169.842 15.352 170.544 13.924C171.27 12.4733 172.29 11.3513 173.604 10.558C174.942 9.76466 176.517 9.368 178.33 9.368ZM178.33 13.312C177.242 13.312 176.426 13.7767 175.882 14.706C175.338 15.6127 175.066 17.0293 175.066 18.956C175.066 20.928 175.327 22.3673 175.848 23.274C176.392 24.1807 177.22 24.634 178.33 24.634C179.418 24.634 180.234 24.1807 180.778 23.274C181.322 22.3447 181.594 20.9167 181.594 18.99C181.594 17.018 181.322 15.5787 180.778 14.672C180.257 13.7653 179.441 13.312 178.33 13.312Z" fill="#141414"/>
<path d="M210.324 9.368C211.752 9.368 212.896 9.85533 213.758 10.83C214.619 11.782 215.05 13.108 215.05 14.808V28H209.678V15.726C209.678 14.1167 209.168 13.312 208.148 13.312C207.581 13.312 207.082 13.5047 206.652 13.89C206.221 14.2753 205.802 14.8647 205.394 15.658V28H200.022V15.726C200.022 14.1167 199.512 13.312 198.492 13.312C197.948 13.312 197.449 13.516 196.996 13.924C196.565 14.3093 196.146 14.8873 195.738 15.658V28H190.366V9.946H195.058L195.432 12.054C196.134 11.1473 196.905 10.4787 197.744 10.048C198.605 9.59466 199.58 9.368 200.668 9.368C201.688 9.368 202.56 9.61733 203.286 10.116C204.034 10.6147 204.578 11.3173 204.918 12.224C205.643 11.2493 206.436 10.5353 207.298 10.082C208.182 9.606 209.19 9.368 210.324 9.368Z" fill="#141414"/>
<path d="M229.32 9.368C231.474 9.368 233.128 10.218 234.284 11.918C235.44 13.5953 236.018 15.9527 236.018 18.99C236.018 20.8487 235.724 22.5033 235.134 23.954C234.568 25.4047 233.74 26.538 232.652 27.354C231.587 28.17 230.318 28.578 228.844 28.578C227.87 28.578 226.974 28.374 226.158 27.966C225.365 27.558 224.685 26.9913 224.118 26.266L223.846 28H219.086V2.772L224.458 2.19399V11.782C225.002 11.034 225.694 10.4447 226.532 10.014C227.394 9.58333 228.323 9.368 229.32 9.368ZM227.28 24.668C229.388 24.668 230.442 22.7753 230.442 18.99C230.442 16.8367 230.193 15.352 229.694 14.536C229.196 13.72 228.47 13.312 227.518 13.312C226.317 13.312 225.297 14.0147 224.458 15.42V22.934C224.798 23.478 225.206 23.9087 225.682 24.226C226.181 24.5207 226.714 24.668 227.28 24.668Z" fill="#141414"/>
<path d="M255.116 18.616C255.116 19.364 255.082 20.01 255.014 20.554H243.828C244.009 22.0727 244.44 23.138 245.12 23.75C245.8 24.362 246.74 24.668 247.942 24.668C248.667 24.668 249.37 24.5433 250.05 24.294C250.73 24.022 251.466 23.614 252.26 23.07L254.47 26.062C252.362 27.7393 250.016 28.578 247.432 28.578C244.508 28.578 242.264 27.7167 240.7 25.994C239.136 24.2713 238.354 21.9593 238.354 19.058C238.354 17.222 238.682 15.5787 239.34 14.128C239.997 12.6547 240.96 11.4987 242.23 10.66C243.499 9.79866 245.018 9.368 246.786 9.368C249.392 9.368 251.432 10.184 252.906 11.816C254.379 13.448 255.116 15.7147 255.116 18.616ZM249.846 17.086C249.8 14.3207 248.826 12.938 246.922 12.938C245.992 12.938 245.267 13.278 244.746 13.958C244.247 14.638 243.941 15.76 243.828 17.324H249.846V17.086Z" fill="#141414"/>
<path d="M269.455 27.15C268.798 27.6033 268.027 27.9547 267.143 28.204C266.282 28.4533 265.421 28.578 264.559 28.578C260.615 28.5553 258.643 26.3793 258.643 22.05V13.686H256.093V9.946H258.643V6.036L264.015 5.424V9.946H266.5V13.686H264.015V21.982C264.015 22.8207 264.151 23.4213 264.423 23.784C264.695 24.1467 265.126 24.328 265.715 24.328C266.327 24.328 266.973 24.1353 267.653 23.75L269.455 27.15Z" fill="#141414"/>
<path d="M280.571 27.15C279.913 27.6033 279.143 27.9547 278.259 28.204C277.397 28.4533 276.536 28.578 275.675 28.578C271.731 28.5553 269.759 26.3793 269.759 22.05V13.686H266.5V9.946H269.759V6.036L275.131 5.424V9.946H279.279L278.701 13.686H275.131V21.982C275.131 22.8207 275.267 23.4213 275.539 23.784C275.811 24.1467 276.241 24.328 276.831 24.328C277.443 24.328 278.089 24.1353 278.769 23.75L280.571 27.15Z" fill="#141414"/>
<path d="M296.344 22.764C296.344 23.444 296.435 23.9427 296.616 24.26C296.82 24.5773 297.137 24.8153 297.568 24.974L296.446 28.476C295.335 28.3853 294.429 28.1473 293.726 27.762C293.023 27.354 292.479 26.7193 292.094 25.858C290.915 27.6713 289.102 28.578 286.654 28.578C284.863 28.578 283.435 28.0567 282.37 27.014C281.305 25.9713 280.772 24.6113 280.772 22.934C280.772 20.962 281.497 19.4547 282.948 18.412C284.399 17.3693 286.495 16.848 289.238 16.848H291.074V16.066C291.074 15.0007 290.847 14.2753 290.394 13.89C289.941 13.482 289.147 13.278 288.014 13.278C287.425 13.278 286.711 13.3687 285.872 13.55C285.033 13.7087 284.172 13.9353 283.288 14.23L282.064 10.694C283.197 10.2633 284.353 9.93466 285.532 9.70799C286.733 9.48133 287.844 9.368 288.864 9.368C291.448 9.368 293.341 9.90066 294.542 10.966C295.743 12.0313 296.344 13.6293 296.344 15.76V22.764ZM288.218 24.736C289.442 24.736 290.394 24.158 291.074 23.002V19.806H289.748C288.524 19.806 287.606 20.0213 286.994 20.452C286.405 20.8827 286.11 21.5513 286.11 22.458C286.11 23.1833 286.291 23.75 286.654 24.158C287.039 24.5433 287.561 24.736 288.218 24.736Z" fill="#141414"/>
</svg>
